<svg width="24" height="20" viewBox="0 0 24 20" xmlns="http://www.w3.org/2000/svg"><title>Shape</title><path d="M13.03.4H7.17C4.54.4 2.067 2.39 2.067 4.698c0 2.356 1.79 4.258 4.464 4.258.187 0 .367-.003.543-.016-.173.33-.297.705-.297 1.093 0 .656.352 1.186.798 1.62-.337 0-.662.01-1.016.01-3.255 0-5.76 2.072-5.76 4.222 0 2.116 2.746 3.44 6 3.44 3.712 0 5.76-2.105 5.76-4.222 0-1.697-.5-2.713-2.05-3.81-.53-.374-1.542-1.286-1.542-1.822 0-.627.18-.937 1.125-1.675.97-.758 1.656-1.822 1.656-3.06 0-1.475-.658-2.912-1.89-3.386h1.858L13.03.4zm-2.048 14.34c.046.195.072.397.072.603 0 1.71-1.102 3.047-4.265 3.047-2.25 0-3.875-1.424-3.875-3.135 0-1.676 2.015-3.072 4.265-3.047.525.005 1.014.09 1.458.233 1.22.85 2.097 1.33 2.344 2.298zm-3.6-6.382c-1.51-.045-2.946-1.69-3.207-3.672-.26-1.983.75-3.5 2.26-3.456 1.51.046 2.946 1.637 3.207 3.62.262 1.983-.752 3.554-2.26 3.508zM19 4.6V.4h-1.4v4.2h-4.2V6h4.2v4.2H19V6h4.2V4.6H19z" fill="#FFF" fill-rule="evenodd"/></svg>