<?xml version="1.0" encoding="utf-8"?>
<!-- Generator: Adobe Illustrator 21.0.2, SVG Export Plug-In . SVG Version: 6.00 Build 0)  -->
<svg version="1.1" id="Layer_1" xmlns="http://www.w3.org/2000/svg" xmlns:xlink="http://www.w3.org/1999/xlink" x="0px" y="0px"
	 viewBox="0 0 23 23" style="enable-background:new 0 0 23 23;display:none;" xml:space="preserve">
<style type="text/css">
	.st0{fill:#FFFFFF;}
</style>
<title>Artboard 1</title>
<g id="Layer_2" style="display:inline;">
	<path class="st0" d="M11.5,4.9c2.1,0,2.4,0,3.2,0c0.5,0,1,0.1,1.5,0.3c0.7,0.3,1.3,0.8,1.5,1.5c0.2,0.5,0.3,1,0.3,1.5
		c0,0.8,0,1.1,0,3.2s0,2.4,0,3.2c0,0.5-0.1,1-0.3,1.5c-0.3,0.7-0.8,1.3-1.5,1.5c-0.5,0.2-1,0.3-1.5,0.3c-0.8,0-1.1,0-3.2,0
		s-2.4,0-3.2,0c-0.5,0-1-0.1-1.5-0.3c-0.7-0.3-1.3-0.8-1.5-1.5c-0.2-0.5-0.2-1-0.2-1.5c0-0.8,0-1.1,0-3.2s0-2.4,0-3.2
		c0-0.5,0.1-1,0.3-1.5c0.3-0.7,0.8-1.2,1.5-1.5C7.3,5.1,7.8,5,8.3,5C9.1,5,9.4,5,11.5,4.9 M11.5,3.6c-2.2,0-2.4,0-3.3,0
		c-0.7,0-1.3,0.1-1.9,0.4C5.2,4.3,4.3,5.2,3.9,6.3C3.7,6.9,3.6,7.5,3.5,8.2c0,0.9,0,1.1,0,3.3s0,2.4,0,3.3c0,0.7,0.1,1.3,0.4,1.9
		c0.4,1.1,1.3,1.9,2.3,2.3c0.6,0.2,1.3,0.4,1.9,0.4c0.9,0,1.1,0,3.3,0s2.4,0,3.3,0c0.7,0,1.3-0.1,1.9-0.4c1.1-0.4,1.9-1.3,2.3-2.3
		c0.2-0.6,0.4-1.3,0.4-1.9c0-0.9,0-1.1,0-3.3s0-2.4,0-3.3c0-0.7-0.1-1.3-0.4-1.9c-0.4-1.1-1.3-1.9-2.3-2.3c-0.6-0.2-1.3-0.4-1.9-0.4
		C14,3.5,13.7,3.5,11.5,3.6L11.5,3.6z"/>
	<path class="st0" d="M11.5,7.4c-2.3,0-4.1,1.8-4.1,4.1s1.8,4.1,4.1,4.1s4.1-1.8,4.1-4.1S13.8,7.4,11.5,7.4L11.5,7.4z M11.5,14.2
		c-1.5,0-2.7-1.2-2.7-2.7s1.2-2.7,2.7-2.7s2.7,1.2,2.7,2.7l0,0C14.2,13,13,14.2,11.5,14.2C11.5,14.2,11.5,14.2,11.5,14.2L11.5,14.2z
		"/>
	<circle class="st0" cx="15.8" cy="7.2" r="1"/>
</g>
</svg>
