<svg width="24" height="24" viewBox="0 0 24 24" xmlns="http://www.w3.org/2000/svg"><title>Shape</title><path d="M12 0C5.372 0 0 5.372 0 12c0 5.083 3.163 9.425 7.627 11.174-.105-.95-.2-2.406.04-3.443l1.408-5.963s-.36-.72-.36-1.782c0-1.668.968-2.914 2.172-2.914 1.023 0 1.518.77 1.518 1.69 0 1.03-.656 2.57-.994 3.997-.282 1.194.6 2.168 1.778 2.168 2.133 0 3.772-2.25 3.772-5.495 0-2.873-2.065-4.88-5.012-4.88-3.414 0-5.42 2.56-5.42 5.206 0 1.03.4 2.137.895 2.738.098.12.112.223.083.344-.09.38-.293 1.195-.333 1.36-.053.22-.174.268-.4.162-1.5-.697-2.437-2.89-2.437-4.648 0-3.785 2.75-7.262 7.928-7.262 4.163 0 7.398 2.967 7.398 6.93 0 4.136-2.608 7.465-6.226 7.465-1.216 0-2.36-.632-2.75-1.378 0 0-.602 2.29-.748 2.852-.27 1.042-1.003 2.348-1.492 3.145C9.57 23.813 10.762 24 12 24c6.626 0 12-5.372 12-12 0-6.627-5.373-12-12-12z" fill="#FFF" fill-rule="evenodd"/></svg>