<?xml version="1.0" encoding="utf-8"?>
<!-- Generator: Adobe Illustrator 21.0.2, SVG Export Plug-In . SVG Version: 6.00 Build 0)  -->
<svg version="1.1" id="Layer_2_1_" xmlns="http://www.w3.org/2000/svg" xmlns:xlink="http://www.w3.org/1999/xlink" x="0px" y="0px"
	 viewBox="0 0 23 23" style="enable-background:new 0 0 23 23;" xml:space="preserve">
<style type="text/css">
	.st0{fill:#FFFFFF;}
</style>
<g>
	<path class="st0" d="M19.5,12.1v4c0,0.1,0,0.2-0.1,0.2c-0.1,0.1-0.1,0.1-0.2,0.1H17V18c0,0.3-0.1,0.5-0.3,0.7
		c-0.2,0.2-0.4,0.3-0.7,0.3H6.9c-0.3,0-0.5-0.1-0.7-0.3C6.1,18.4,6,18.2,6,18v-1.5H3.8c-0.1,0-0.2,0-0.2-0.1
		c-0.1-0.1-0.1-0.1-0.1-0.2v-4c0-0.5,0.2-0.9,0.5-1.3c0.4-0.4,0.8-0.5,1.3-0.5H6V5c0-0.3,0.1-0.5,0.3-0.7c0.2-0.2,0.4-0.3,0.7-0.3
		h6.5c0.3,0,0.5,0.1,0.8,0.2c0.3,0.1,0.6,0.3,0.7,0.5l1.5,1.5c0.2,0.2,0.3,0.4,0.5,0.7S17,7.6,17,7.8v2.5h0.6c0.5,0,0.9,0.2,1.3,0.5
		C19.3,11.2,19.5,11.6,19.5,12.1z M7.2,11.5h8.6V7.8h-1.5c-0.3,0-0.5-0.1-0.7-0.3s-0.3-0.4-0.3-0.7V5.3H7.2V11.5z M7.2,17.7h8.6
		v-2.5H7.2V17.7z M18.1,12.5c0.1-0.1,0.2-0.3,0.2-0.4c0-0.2-0.1-0.3-0.2-0.4c-0.1-0.1-0.3-0.2-0.4-0.2c-0.2,0-0.3,0.1-0.4,0.2
		c-0.1,0.1-0.2,0.3-0.2,0.4c0,0.2,0.1,0.3,0.2,0.4c0.1,0.1,0.3,0.2,0.4,0.2C17.8,12.7,18,12.7,18.1,12.5z"/>
</g>
</svg>
