<svg width="14" height="22" viewBox="0 0 14 22" xmlns="http://www.w3.org/2000/svg"><title>Shape</title><path d="M8.54 9.833v4.722c0 1.198-.014 1.89.113 2.228.126.338.442.69.786.89.456.276.978.412 1.566.412 1.045 0 1.662-.138 2.696-.817v3.104c-.88.415-1.65.658-2.365.826-.716.166-1.49.25-2.32.25-.945 0-1.502-.12-2.227-.356-.725-.24-1.344-.58-1.856-1.02-.513-.44-.867-.91-1.066-1.407-.198-.496-.297-1.218-.297-2.162V9.26H.8V6.34c.81-.264 1.717-.64 2.295-1.133.58-.493 1.044-1.083 1.393-1.773.35-.688.592-1.567.724-2.632h3.33v5.162h5.16v3.872h-5.16z" fill="#F9F9F9" fill-rule="evenodd"/></svg>