<svg width="23" height="18" viewBox="0 0 23 18" xmlns="http://www.w3.org/2000/svg"><title>Shape</title><path d="M22.458 2.283c-.797.353-1.653.592-2.552.7.917-.55 1.62-1.42 1.954-2.458-.86.51-1.81.88-2.822 1.078C18.228.74 17.073.2 15.795.2c-2.454 0-4.443 1.99-4.443 4.443 0 .35.04.688.115 1.013C7.774 5.47 4.5 3.7 2.31 1.013c-.384.656-.603 1.42-.603 2.234 0 1.542.784 2.9 1.977 3.7-.728-.024-1.413-.224-2.013-.557v.056c0 2.153 1.532 3.95 3.564 4.357-.373.1-.765.155-1.17.155-.287 0-.565-.027-.836-.08.565 1.766 2.206 3.05 4.15 3.086-1.52 1.192-3.436 1.902-5.518 1.902-.36 0-.712-.02-1.06-.063 1.966 1.26 4.302 1.997 6.81 1.997 8.174 0 12.643-6.77 12.643-12.642 0-.193-.004-.385-.013-.575.87-.627 1.622-1.41 2.217-2.3z" fill="#FFF" fill-rule="evenodd"/></svg>